<svg xmlns="http://www.w3.org/2000/svg" version="1.1" xmlns:xlink="http://www.w3.org/1999/xlink" xmlns:svgjs="http://svgjs.dev/svgjs" width="1440" height="560" preserveAspectRatio="none" viewBox="0 0 1440 560"><g mask="url(&quot;#SvgjsMask1025&quot;)" fill="none"><path d="M983.91 256.37 a137.12 137.12 0 1 0 274.24 0 a137.12 137.12 0 1 0 -274.24 0z" fill="rgba(74, 109, 255, 0.65)" class="triangle-float1"></path><path d="M888.773,140.124C915.768,139.654,935.375,117.661,948.832,94.255C962.234,70.944,971.338,42.96,958.088,19.562C944.694,-4.089,915.941,-12.612,888.773,-11.799C863.145,-11.032,839.314,1.421,826.293,23.508C813.063,45.949,812.677,73.45,824.979,96.412C838.027,120.766,861.148,140.605,888.773,140.124" fill="rgba(74, 109, 255, 0.65)" class="triangle-float3"></path><path d="M194.933,560.554C225.904,561.454,258.41,554.019,275.346,528.074C293.738,499.899,294.89,462.784,277.593,433.924C260.726,405.781,227.734,393.142,194.933,393.906C163.54,394.637,134.037,410.232,118.684,437.625C103.65,464.449,106.019,497.493,122.228,523.624C137.585,548.382,165.811,559.708,194.933,560.554" fill="rgba(74, 109, 255, 0.65)" class="triangle-float3"></path><path d="M1076.69 508.62 a122.12 122.12 0 1 0 244.24 0 a122.12 122.12 0 1 0 -244.24 0z" fill="rgba(74, 109, 255, 0.65)" class="triangle-float2"></path><path d="M766.307,256.707C809.618,255.172,841.595,222.154,864.34,185.264C888.662,145.816,912.919,97.518,888.889,57.892C865.309,19.008,811.741,21.675,766.307,23.602C725.408,25.336,682.948,33.344,660.501,67.577C635.976,104.98,633.615,153.633,655.452,192.667C677.783,232.583,720.598,258.327,766.307,256.707" fill="rgba(74, 109, 255, 0.65)" class="triangle-float2"></path><path d="M1074.023,677.771C1114.263,677.668,1160.319,679.445,1181.935,645.504C1204.577,609.952,1191.277,564.159,1169.278,528.205C1148.379,494.048,1114.04,467.654,1074.023,469.136C1036.014,470.544,1010.186,502.444,990.253,534.837C968.904,569.53,944.556,610.913,965.153,646.057C985.637,681.009,1033.511,677.874,1074.023,677.771" fill="rgba(74, 109, 255, 0.65)" class="triangle-float3"></path><path d="M1383.088,320.812C1400.954,321.026,1417.717,311.848,1426.757,296.437C1435.906,280.841,1435.39,261.883,1427.073,245.829C1417.968,228.255,1402.872,211.563,1383.088,212.147C1363.911,212.713,1352.001,231.16,1343.378,248.298C1335.805,263.35,1333.101,280.633,1341.194,295.412C1349.601,310.764,1365.586,320.602,1383.088,320.812" fill="rgba(74, 109, 255, 0.65)" class="triangle-float2"></path></g><defs><mask id="SvgjsMask1025"><rect width="1440" height="560" fill="#ffffff"></rect></mask><style>
                @keyframes float1 {
                    0%{transform: translate(0, 0)}
                    50%{transform: translate(-10px, 0)}
                    100%{transform: translate(0, 0)}
                }

                .triangle-float1 {
                    animation: float1 5s infinite;
                }

                @keyframes float2 {
                    0%{transform: translate(0, 0)}
                    50%{transform: translate(-5px, -5px)}
                    100%{transform: translate(0, 0)}
                }

                .triangle-float2 {
                    animation: float2 4s infinite;
                }

                @keyframes float3 {
                    0%{transform: translate(0, 0)}
                    50%{transform: translate(0, -10px)}
                    100%{transform: translate(0, 0)}
                }

                .triangle-float3 {
                    animation: float3 6s infinite;
                }
            </style></defs></svg>